<svg width="24" height="25" viewBox="0 0 24 25" fill="none" xmlns="http://www.w3.org/2000/svg">
<g clip-path="url(#clip0_440_375)">
<path d="M8.36055 1.57288C5.96258 2.40476 3.89457 3.98369 2.46029 6.07776C1.026 8.17182 0.301037 10.6706 0.391883 13.2072C0.482728 15.7437 1.38459 18.1843 2.96501 20.1704C4.54543 22.1565 6.72109 23.5834 9.17243 24.2416C11.1598 24.7544 13.2419 24.777 15.2399 24.3073C17.0499 23.9007 18.7233 23.0311 20.0962 21.7835C21.5251 20.4454 22.5622 18.7432 23.0962 16.8598C23.6765 14.8116 23.7798 12.6578 23.3981 10.5635H12.2381V15.1929H18.7012C18.572 15.9312 18.2952 16.6359 17.8873 17.2648C17.4795 17.8937 16.9489 18.4338 16.3274 18.8529C15.5382 19.3749 14.6485 19.7262 13.7156 19.8841C12.7798 20.0581 11.82 20.0581 10.8843 19.8841C9.93591 19.688 9.03874 19.2966 8.24993 18.7348C6.98271 17.8377 6.0312 16.5634 5.53118 15.0935C5.02271 13.5961 5.02271 11.9728 5.53118 10.4754C5.8871 9.42579 6.47549 8.47013 7.25243 7.67975C8.14154 6.75866 9.26718 6.10025 10.5058 5.77677C11.7445 5.4533 13.0484 5.47725 14.2743 5.846C15.232 6.13999 16.1078 6.65364 16.8318 7.346C17.5606 6.621 18.2881 5.89413 19.0143 5.16538C19.3893 4.7735 19.7981 4.40038 20.1674 3.99913C19.0622 2.97065 17.765 2.17036 16.3499 1.64413C13.7731 0.708486 10.9536 0.683341 8.36055 1.57288Z" fill="white"/>
<path d="M8.3607 1.57281C10.9536 0.682671 13.7731 0.707154 16.3501 1.64219C17.7654 2.172 19.062 2.97614 20.1657 4.00844C19.7907 4.40969 19.3951 4.78469 19.0126 5.17469C18.2851 5.90094 17.5582 6.62469 16.832 7.34594C16.1079 6.65357 15.2321 6.13992 14.2745 5.84594C13.0489 5.47589 11.7451 5.45055 10.5061 5.77271C9.26712 6.09486 8.14079 6.75205 7.2507 7.67219C6.47377 8.46257 5.88538 9.41822 5.52945 10.4678L1.64258 7.45844C3.03384 4.69949 5.44273 2.58911 8.3607 1.57281Z" fill="#E33629"/>
<path d="M0.611401 10.4397C0.820316 9.40436 1.16716 8.40167 1.64265 7.4585L5.52953 10.4754C5.02105 11.9728 5.02105 13.5961 5.52953 15.0935C4.23453 16.0935 2.9389 17.0985 1.64265 18.1085C0.452308 15.7391 0.0892746 13.0394 0.611401 10.4397Z" fill="#F8BD00"/>
<path d="M12.2381 10.5615H23.3981C23.7799 12.6558 23.6766 14.8097 23.0963 16.8578C22.5623 18.7412 21.5252 20.4434 20.0963 21.7815C18.8419 20.8028 17.5819 19.8315 16.3275 18.8528C16.9494 18.4333 17.4802 17.8926 17.8881 17.263C18.296 16.6335 18.5726 15.928 18.7013 15.189H12.2381C12.2363 13.6478 12.2381 12.1046 12.2381 10.5615Z" fill="#587DBD"/>
<path d="M1.64062 18.1085C2.93687 17.1085 4.2325 16.1035 5.5275 15.0935C6.02851 16.5639 6.98138 17.8383 8.25 18.7348C9.04127 19.294 9.94037 19.6823 10.89 19.8748C11.8257 20.0487 12.7855 20.0487 13.7213 19.8748C14.6542 19.7168 15.5439 19.3656 16.3331 18.8435C17.5875 19.8223 18.8475 20.7935 20.1019 21.7723C18.7292 23.0205 17.0558 23.8908 15.2456 24.2979C13.2476 24.7676 11.1655 24.7451 9.17813 24.2323C7.60632 23.8126 6.13814 23.0727 4.86563 22.0591C3.51874 20.9898 2.41867 19.6422 1.64062 18.1085Z" fill="#319F43"/>
</g>
<defs>
<clipPath id="clip0_440_375">
<rect width="24" height="24" fill="white" transform="translate(0 0.783447)"/>
</clipPath>
</defs>
</svg>
