<svg width="18" height="18" viewBox="0 0 18 18" fill="none" xmlns="http://www.w3.org/2000/svg">
<path d="M18 5.8125C18 12.375 9.65973 17.6869 9.30455 17.9062C9.21094 17.965 9.1063 17.9958 9 17.9958C8.8937 17.9958 8.78906 17.965 8.69545 17.9062C8.34027 17.6869 0 12.375 0 5.8125C0.00148881 4.27146 0.52687 2.79404 1.46088 1.70436C2.39489 0.614681 3.66125 0.00173694 4.98214 0C6.64152 0 8.09437 0.8325 9 2.23969C9.90563 0.8325 11.3585 0 13.0179 0C14.3387 0.00173694 15.6051 0.614681 16.5391 1.70436C17.4731 2.79404 17.9985 4.27146 18 5.8125Z" fill="#E91111"/>
</svg>
